<svg xmlns="http://www.w3.org/2000/svg" xmlns:xlink="http://www.w3.org/1999/xlink" viewBox="0 0 512 512"><defs><style>.a{fill:url(#a);}.b{fill:url(#b);}.c{fill:url(#c);}.d{fill:url(#d);}.e{fill:url(#e);}.f{fill:url(#f);}.g{fill:url(#g);}.h{fill:url(#h);}.i{fill:url(#i);}</style><linearGradient id="a" y1="256" x2="512" y2="256" gradientUnits="userSpaceOnUse"><stop offset="0" stop-color="#ee0979"/><stop offset="1" stop-color="#ff6a00"/></linearGradient><linearGradient id="b" x1="267.7" y1="240.76" x2="389.55" y2="240.76" xlink:href="#a"/><linearGradient id="c" x1="386.68" y1="155.46" x2="407.97" y2="155.46" xlink:href="#a"/><linearGradient id="d" x1="249.27" y1="155.46" x2="270.57" y2="155.46" xlink:href="#a"/><linearGradient id="e" x1="73" y1="374" x2="93" y2="374" xlink:href="#a"/><linearGradient id="f" x1="128" y1="374" x2="148" y2="374" xlink:href="#a"/><linearGradient id="g" x1="183" y1="374" x2="203" y2="374" xlink:href="#a"/><linearGradient id="h" x1="227.76" y1="454.2" x2="247.76" y2="454.2" xlink:href="#a"/><linearGradient id="i" x1="195.3" y1="60.64" x2="215.3" y2="60.64" xlink:href="#a"/></defs><path className="a" d="M483.73,282A183.12,183.12,0,0,0,512,184C512,82.54,429.46,0,328,0a183.65,183.65,0,0,0-96,27,10,10,0,0,0,10.45,17.05A163.69,163.69,0,0,1,328,20c90.43,0,164,73.57,164,164a163.17,163.17,0,0,1-27.9,91.53,10,10,0,0,0,.28,11.57l11,40.9-44-11.79a10,10,0,0,0-8.38,1.51,164.18,164.18,0,0,1-151.78,20.15,138.52,138.52,0,0,0-97.06-97.06A164.22,164.22,0,0,1,188.57,97.62a10,10,0,1,0-17-10.55,184.33,184.33,0,0,0-19.91,149.61c-4.5-.44-9.06-.68-13.67-.68C61.91,236,0,297.91,0,374a137,137,0,0,0,22.88,76.12l-10.7,39.95a10,10,0,0,0,12.25,12.25l40.93-11a138.1,138.1,0,0,0,146.58-.81,10,10,0,0,0-10.73-16.88A118.05,118.05,0,0,1,72.6,472.22a10.05,10.05,0,0,0-8.14-1.34L36,478.51l7.41-27.66a10,10,0,0,0-1.52-8.4,118,118,0,1,1,207-28,10,10,0,1,0,18.79,6.85A137.7,137.7,0,0,0,276,374q0-6.92-.68-13.67a184.32,184.32,0,0,0,155.33-23.6l56.24,15.07a10,10,0,0,0,12.25-12.25Z" transform="translate(0)"/><path className="b" d="M379.55,205.29H277.7a10,10,0,0,0-10,10,60.93,60.93,0,1,0,121.85,0A10,10,0,0,0,379.55,205.29Zm-50.93,50.93a41,41,0,0,1-39.69-30.93h79.39A41,41,0,0,1,328.62,256.22Z" transform="translate(0)"/><path className="c" d="M406.49,149.82a10,10,0,0,0-13.76-3.27l-1.31.8a10,10,0,0,0,10.52,17l1.28-.79A10,10,0,0,0,406.49,149.82Z" transform="translate(0)"/><path className="d" d="M269.08,149.82a10,10,0,0,0-13.76-3.27l-1.3.8a10,10,0,0,0,10.51,17l1.28-.79A10,10,0,0,0,269.08,149.82Z" transform="translate(0)"/><path className="e" d="M90.07,366.93A10,10,0,1,0,93,374,10.08,10.08,0,0,0,90.07,366.93Z" transform="translate(0)"/><path className="f" d="M145.07,366.93A10,10,0,1,0,148,374,10.08,10.08,0,0,0,145.07,366.93Z" transform="translate(0)"/><path className="g" d="M200.07,366.93A10,10,0,1,0,203,374,10.08,10.08,0,0,0,200.07,366.93Z" transform="translate(0)"/><path className="h" d="M244.83,447.13a10,10,0,1,0,2.93,7.07A10.08,10.08,0,0,0,244.83,447.13Z" transform="translate(0)"/><path className="i" d="M212.37,53.56a10,10,0,1,0,2.93,7.08A10.07,10.07,0,0,0,212.37,53.56Z" transform="translate(0)"/></svg>